# xmcd CD database file
#
# Track frame offsets:
#	150
#	24832
#	48211
#	69000
#	95512
#	116671
#	143619
#	163135
#	186065
#	201129
#
# Disc length: 2989 seconds
#
# Revision: 0
# Processed by: cddbd v1.5PL3 Copyright (c) Steve Scherf et al.
# Submitted via: CDex 1.50
#
DISCID=7a0bab0a
DTITLE=Sheila Landis - GUESS I'LL CALL IT LOVE
DYEAR=1900
DGENRE=Jazz
TTITLE0=Guess I'll Call It Love (Penso Que Seja Amor)
TTITLE1=Lonely Wine
TTITLE2=Mythica
TTITLE3=There's Never Enough There for Me
TTITLE4=Talk Dirty to Me
TTITLE5=Cole's Eye View
TTITLE6=Love Robs Your Reason
TTITLE7=Where You Gonna Put Your Blues?
TTITLE8=Perenthe-Seizure
TTITLE9=Starlight, the Song That's Your Eyes
EXTD=
EXTT0=
EXTT1=
EXTT2=
EXTT3=
EXTT4=
EXTT5=
EXTT6=
EXTT7=
EXTT8=
EXTT9=
PLAYORDER=
